<?xml version="1.0" encoding="us-ascii" standalone="no"?><svg xmlns="http://www.w3.org/2000/svg" xmlns:xlink="http://www.w3.org/1999/xlink" contentStyleType="text/css" height="1061px" preserveAspectRatio="none" style="width:1082px;height:1061px;background:#FFFFFF;" version="1.1" viewBox="0 0 1082 1061" width="1082px" zoomAndPan="magnify"><defs/><g><!--cluster com--><g id="cluster_com"><path d="M8.5,6 L43.5,6 A3.75,3.75 0 0 1 46,8.5 L53,28.2969 L1072.5,28.2969 A2.5,2.5 0 0 1 1075,30.7969 L1075,1051.5 A2.5,2.5 0 0 1 1072.5,1054 L8.5,1054 A2.5,2.5 0 0 1 6,1051.5 L6,8.5 A2.5,2.5 0 0 1 8.5,6 " fill="none" style="stroke:#000000;stroke-width:1.5;"/><line style="stroke:#000000;stroke-width:1.5;" x1="6" x2="53" y1="28.2969" y2="28.2969"/><text fill="#000000" font-family="sans-serif" font-size="14" font-weight="bold" lengthAdjust="spacing" textLength="34" x="10" y="20.9951">com</text></g><!--cluster mygdx--><g id="cluster_mygdx"><path d="M32.5,49 L86.5,49 A3.75,3.75 0 0 1 89,51.5 L96,71.2969 L1048.5,71.2969 A2.5,2.5 0 0 1 1051,73.7969 L1051,1027.5 A2.5,2.5 0 0 1 1048.5,1030 L32.5,1030 A2.5,2.5 0 0 1 30,1027.5 L30,51.5 A2.5,2.5 0 0 1 32.5,49 " fill="none" style="stroke:#000000;stroke-width:1.5;"/><line style="stroke:#000000;stroke-width:1.5;" x1="30" x2="96" y1="71.2969" y2="71.2969"/><text fill="#000000" font-family="sans-serif" font-size="14" font-weight="bold" lengthAdjust="spacing" textLength="53" x="34" y="63.9951">mygdx</text></g><!--cluster game--><g id="cluster_game"><path d="M56.5,92 L101.5,92 A3.75,3.75 0 0 1 104,94.5 L111,114.2969 L1024.5,114.2969 A2.5,2.5 0 0 1 1027,116.7969 L1027,1003.5 A2.5,2.5 0 0 1 1024.5,1006 L56.5,1006 A2.5,2.5 0 0 1 54,1003.5 L54,94.5 A2.5,2.5 0 0 1 56.5,92 " fill="none" style="stroke:#000000;stroke-width:1.5;"/><line style="stroke:#000000;stroke-width:1.5;" x1="54" x2="111" y1="114.2969" y2="114.2969"/><text fill="#000000" font-family="sans-serif" font-size="14" font-weight="bold" lengthAdjust="spacing" textLength="44" x="58" y="106.9951">game</text></g><!--class GameApp--><g id="elem_GameApp"><rect codeLine="3" fill="#F1F1F1" height="96.8906" id="GameApp" rx="2.5" ry="2.5" style="stroke:#181818;stroke-width:0.5;" width="123" x="388.5" y="127"/><ellipse cx="412.05" cy="143" fill="#ADD1B2" rx="11" ry="11" style="stroke:#181818;stroke-width:1.0;"/><path d="M414.3938,138.6719 C413.4563,138.2344 412.8625,138.0938 411.9875,138.0938 C409.3625,138.0938 407.3625,140.1719 407.3625,142.8906 L407.3625,144.0156 C407.3625,146.5938 409.4719,148.4844 412.3625,148.4844 C413.5813,148.4844 414.7375,148.1875 415.4875,147.6406 C416.0656,147.2344 416.3938,146.7813 416.3938,146.3906 C416.3938,145.9375 416.0031,145.5469 415.5344,145.5469 C415.3156,145.5469 415.1125,145.625 414.925,145.8125 C414.4719,146.2969 414.4719,146.2969 414.2844,146.3906 C413.8625,146.6563 413.175,146.7813 412.4094,146.7813 C410.3625,146.7813 409.0656,145.6875 409.0656,143.9844 L409.0656,142.8906 C409.0656,141.1094 410.3156,139.7969 412.05,139.7969 C412.6281,139.7969 413.2375,139.9531 413.7063,140.2031 C414.1906,140.4844 414.3625,140.7031 414.4563,141.1094 C414.5188,141.5156 414.55,141.6406 414.6906,141.7656 C414.8313,141.9063 415.0656,142.0156 415.2844,142.0156 C415.55,142.0156 415.8156,141.875 415.9875,141.6563 C416.0969,141.5 416.1281,141.3125 416.1281,140.8906 L416.1281,139.4688 C416.1281,139.0313 416.1125,138.9063 416.0188,138.75 C415.8625,138.4844 415.5813,138.3438 415.2844,138.3438 C414.9875,138.3438 414.7844,138.4375 414.5656,138.75 L414.3938,138.6719 Z " fill="#000000"/><text fill="#000000" font-family="sans-serif" font-size="14" lengthAdjust="spacing" textLength="72" x="427.95" y="147.8467">GameApp</text><line style="stroke:#181818;stroke-width:0.5;" x1="389.5" x2="510.5" y1="159" y2="159"/><rect fill="none" height="6" style="stroke:#C82930;stroke-width:1.0;" width="6" x="396.5" y="169.6484"/><text fill="#000000" font-family="sans-serif" font-size="14" lengthAdjust="spacing" textLength="90" x="408.5" y="175.9951">world: World</text><line style="stroke:#181818;stroke-width:0.5;" x1="389.5" x2="510.5" y1="183.2969" y2="183.2969"/><ellipse cx="399.5" cy="196.9453" fill="#84BE84" rx="3" ry="3" style="stroke:#038048;stroke-width:1.0;"/><text fill="#000000" font-family="sans-serif" font-size="14" lengthAdjust="spacing" textLength="96" x="408.5" y="200.292">create(): void</text><ellipse cx="399.5" cy="213.2422" fill="#84BE84" rx="3" ry="3" style="stroke:#038048;stroke-width:1.0;"/><text fill="#000000" font-family="sans-serif" font-size="14" lengthAdjust="spacing" textLength="97" x="408.5" y="216.5889">render(): void</text></g><!--class Helicopter--><g id="elem_Helicopter"><rect codeLine="9" fill="#F1F1F1" height="194.6719" id="Helicopter" rx="2.5" ry="2.5" style="stroke:#181818;stroke-width:0.5;" width="556" x="70" y="556"/><ellipse cx="305.75" cy="572" fill="#ADD1B2" rx="11" ry="11" style="stroke:#181818;stroke-width:1.0;"/><path d="M308.0938,567.6719 C307.1563,567.2344 306.5625,567.0938 305.6875,567.0938 C303.0625,567.0938 301.0625,569.1719 301.0625,571.8906 L301.0625,573.0156 C301.0625,575.5938 303.1719,577.4844 306.0625,577.4844 C307.2813,577.4844 308.4375,577.1875 309.1875,576.6406 C309.7656,576.2344 310.0938,575.7813 310.0938,575.3906 C310.0938,574.9375 309.7031,574.5469 309.2344,574.5469 C309.0156,574.5469 308.8125,574.625 308.625,574.8125 C308.1719,575.2969 308.1719,575.2969 307.9844,575.3906 C307.5625,575.6563 306.875,575.7813 306.1094,575.7813 C304.0625,575.7813 302.7656,574.6875 302.7656,572.9844 L302.7656,571.8906 C302.7656,570.1094 304.0156,568.7969 305.75,568.7969 C306.3281,568.7969 306.9375,568.9531 307.4063,569.2031 C307.8906,569.4844 308.0625,569.7031 308.1563,570.1094 C308.2188,570.5156 308.25,570.6406 308.3906,570.7656 C308.5313,570.9063 308.7656,571.0156 308.9844,571.0156 C309.25,571.0156 309.5156,570.875 309.6875,570.6563 C309.7969,570.5 309.8281,570.3125 309.8281,569.8906 L309.8281,568.4688 C309.8281,568.0313 309.8125,567.9063 309.7188,567.75 C309.5625,567.4844 309.2813,567.3438 308.9844,567.3438 C308.6875,567.3438 308.4844,567.4375 308.2656,567.75 L308.0938,567.6719 Z " fill="#000000"/><text fill="#000000" font-family="sans-serif" font-size="14" lengthAdjust="spacing" textLength="76" x="326.25" y="576.8467">Helicopter</text><line style="stroke:#181818;stroke-width:0.5;" x1="71" x2="625" y1="588" y2="588"/><rect fill="none" height="6" style="stroke:#C82930;stroke-width:1.0;" width="6" x="78" y="598.6484"/><text fill="#000000" font-family="sans-serif" font-size="14" lengthAdjust="spacing" textLength="284" x="90" y="604.9951">x, y, xVelocity, yVelocity, rotation: float</text><rect fill="none" height="6" style="stroke:#C82930;stroke-width:1.0;" width="6" x="78" y="614.9453"/><text fill="#000000" font-family="sans-serif" font-size="14" lengthAdjust="spacing" textLength="138" x="90" y="621.292">width, height: float</text><rect fill="none" height="6" style="stroke:#C82930;stroke-width:1.0;" width="6" x="78" y="631.2422"/><text fill="#000000" font-family="sans-serif" font-size="14" lengthAdjust="spacing" textLength="90" x="90" y="637.5889">world: World</text><rect fill="none" height="6" style="stroke:#C82930;stroke-width:1.0;" width="6" x="78" y="647.5391"/><text fill="#000000" font-family="sans-serif" font-size="14" lengthAdjust="spacing" textLength="217" x="90" y="653.8857">animator: HelicopterAnimator</text><line style="stroke:#181818;stroke-width:0.5;" x1="71" x2="625" y1="661.1875" y2="661.1875"/><ellipse cx="81" cy="674.8359" fill="#84BE84" rx="3" ry="3" style="stroke:#038048;stroke-width:1.0;"/><text fill="#000000" font-family="sans-serif" font-size="14" lengthAdjust="spacing" textLength="530" x="90" y="678.1826">Helicopter(world: World, x: float, y: float, xVelocity: float, yVelocity: float)</text><ellipse cx="81" cy="691.1328" fill="#84BE84" rx="3" ry="3" style="stroke:#038048;stroke-width:1.0;"/><text fill="#000000" font-family="sans-serif" font-size="14" lengthAdjust="spacing" textLength="216" x="90" y="694.4795">update(deltaTime: float): void</text><ellipse cx="81" cy="707.4297" fill="#84BE84" rx="3" ry="3" style="stroke:#038048;stroke-width:1.0;"/><text fill="#000000" font-family="sans-serif" font-size="14" lengthAdjust="spacing" textLength="235" x="90" y="710.7764">render(batch: SpriteBatch): void</text><ellipse cx="81" cy="723.7266" fill="#84BE84" rx="3" ry="3" style="stroke:#038048;stroke-width:1.0;"/><text fill="#000000" font-family="sans-serif" font-size="14" lengthAdjust="spacing" textLength="290" x="90" y="727.0732">collidesWith(other: Helicopter): boolean</text><ellipse cx="81" cy="740.0234" fill="#84BE84" rx="3" ry="3" style="stroke:#038048;stroke-width:1.0;"/><text fill="#000000" font-family="sans-serif" font-size="14" lengthAdjust="spacing" textLength="262" x="90" y="743.3701">handleCrash(other: Helicopter): void</text></g><!--class HelicopterAnimator--><g id="elem_HelicopterAnimator"><rect codeLine="21" fill="#F1F1F1" height="162.0781" id="HelicopterAnimator" rx="2.5" ry="2.5" style="stroke:#181818;stroke-width:0.5;" width="607" x="70.5" y="828"/><ellipse cx="298.25" cy="844" fill="#ADD1B2" rx="11" ry="11" style="stroke:#181818;stroke-width:1.0;"/><path d="M300.5938,839.6719 C299.6563,839.2344 299.0625,839.0938 298.1875,839.0938 C295.5625,839.0938 293.5625,841.1719 293.5625,843.8906 L293.5625,845.0156 C293.5625,847.5938 295.6719,849.4844 298.5625,849.4844 C299.7813,849.4844 300.9375,849.1875 301.6875,848.6406 C302.2656,848.2344 302.5938,847.7813 302.5938,847.3906 C302.5938,846.9375 302.2031,846.5469 301.7344,846.5469 C301.5156,846.5469 301.3125,846.625 301.125,846.8125 C300.6719,847.2969 300.6719,847.2969 300.4844,847.3906 C300.0625,847.6563 299.375,847.7813 298.6094,847.7813 C296.5625,847.7813 295.2656,846.6875 295.2656,844.9844 L295.2656,843.8906 C295.2656,842.1094 296.5156,840.7969 298.25,840.7969 C298.8281,840.7969 299.4375,840.9531 299.9063,841.2031 C300.3906,841.4844 300.5625,841.7031 300.6563,842.1094 C300.7188,842.5156 300.75,842.6406 300.8906,842.7656 C301.0313,842.9063 301.2656,843.0156 301.4844,843.0156 C301.75,843.0156 302.0156,842.875 302.1875,842.6563 C302.2969,842.5 302.3281,842.3125 302.3281,841.8906 L302.3281,840.4688 C302.3281,840.0313 302.3125,839.9063 302.2188,839.75 C302.0625,839.4844 301.7813,839.3438 301.4844,839.3438 C301.1875,839.3438 300.9844,839.4375 300.7656,839.75 L300.5938,839.6719 Z " fill="#000000"/><text fill="#000000" font-family="sans-serif" font-size="14" lengthAdjust="spacing" textLength="143" x="318.75" y="848.8467">HelicopterAnimator</text><line style="stroke:#181818;stroke-width:0.5;" x1="71.5" x2="676.5" y1="860" y2="860"/><rect fill="none" height="6" style="stroke:#C82930;stroke-width:1.0;" width="6" x="78.5" y="870.6484"/><text fill="#000000" font-family="sans-serif" font-size="14" lengthAdjust="spacing" textLength="175" x="90.5" y="876.9951">sprites: Array&lt;Texture&gt;</text><rect fill="none" height="6" style="stroke:#C82930;stroke-width:1.0;" width="6" x="78.5" y="886.9453"/><text fill="#000000" font-family="sans-serif" font-size="14" lengthAdjust="spacing" textLength="129" x="90.5" y="893.292">displayTime: float</text><rect fill="none" height="6" style="stroke:#C82930;stroke-width:1.0;" width="6" x="78.5" y="903.2422"/><text fill="#000000" font-family="sans-serif" font-size="14" lengthAdjust="spacing" textLength="135" x="90.5" y="909.5889">shallLoop: boolean</text><rect fill="none" height="6" style="stroke:#C82930;stroke-width:1.0;" width="6" x="78.5" y="919.5391"/><text fill="#000000" font-family="sans-serif" font-size="14" lengthAdjust="spacing" textLength="132" x="90.5" y="925.8857">currentTime: float</text><line style="stroke:#181818;stroke-width:0.5;" x1="71.5" x2="676.5" y1="933.1875" y2="933.1875"/><ellipse cx="81.5" cy="946.8359" fill="#84BE84" rx="3" ry="3" style="stroke:#038048;stroke-width:1.0;"/><text fill="#000000" font-family="sans-serif" font-size="14" lengthAdjust="spacing" textLength="425" x="90.5" y="950.1826">HelicopterAnimator(displayTime: float, shallLoop: boolean)</text><ellipse cx="81.5" cy="963.1328" fill="#84BE84" rx="3" ry="3" style="stroke:#038048;stroke-width:1.0;"/><text fill="#000000" font-family="sans-serif" font-size="14" lengthAdjust="spacing" textLength="216" x="90.5" y="966.4795">update(deltaTime: float): void</text><ellipse cx="81.5" cy="979.4297" fill="#84BE84" rx="3" ry="3" style="stroke:#038048;stroke-width:1.0;"/><text fill="#000000" font-family="sans-serif" font-size="14" lengthAdjust="spacing" textLength="581" x="90.5" y="982.7764">render(batch: SpriteBatch, x: float, y: float, xVelocity: float, rotation: float): void</text></g><!--class World--><g id="elem_World"><rect codeLine="31" fill="#F1F1F1" height="178.375" id="World" rx="2.5" ry="2.5" style="stroke:#181818;stroke-width:0.5;" width="337" x="281.5" y="301"/><ellipse cx="424.75" cy="317" fill="#ADD1B2" rx="11" ry="11" style="stroke:#181818;stroke-width:1.0;"/><path d="M427.0938,312.6719 C426.1563,312.2344 425.5625,312.0938 424.6875,312.0938 C422.0625,312.0938 420.0625,314.1719 420.0625,316.8906 L420.0625,318.0156 C420.0625,320.5938 422.1719,322.4844 425.0625,322.4844 C426.2813,322.4844 427.4375,322.1875 428.1875,321.6406 C428.7656,321.2344 429.0938,320.7813 429.0938,320.3906 C429.0938,319.9375 428.7031,319.5469 428.2344,319.5469 C428.0156,319.5469 427.8125,319.625 427.625,319.8125 C427.1719,320.2969 427.1719,320.2969 426.9844,320.3906 C426.5625,320.6563 425.875,320.7813 425.1094,320.7813 C423.0625,320.7813 421.7656,319.6875 421.7656,317.9844 L421.7656,316.8906 C421.7656,315.1094 423.0156,313.7969 424.75,313.7969 C425.3281,313.7969 425.9375,313.9531 426.4063,314.2031 C426.8906,314.4844 427.0625,314.7031 427.1563,315.1094 C427.2188,315.5156 427.25,315.6406 427.3906,315.7656 C427.5313,315.9063 427.7656,316.0156 427.9844,316.0156 C428.25,316.0156 428.5156,315.875 428.6875,315.6563 C428.7969,315.5 428.8281,315.3125 428.8281,314.8906 L428.8281,313.4688 C428.8281,313.0313 428.8125,312.9063 428.7188,312.75 C428.5625,312.4844 428.2813,312.3438 427.9844,312.3438 C427.6875,312.3438 427.4844,312.4375 427.2656,312.75 L427.0938,312.6719 Z " fill="#000000"/><text fill="#000000" font-family="sans-serif" font-size="14" lengthAdjust="spacing" textLength="42" x="445.25" y="321.8467">World</text><line style="stroke:#181818;stroke-width:0.5;" x1="282.5" x2="617.5" y1="333" y2="333"/><rect fill="none" height="6" style="stroke:#C82930;stroke-width:1.0;" width="6" x="289.5" y="343.6484"/><text fill="#000000" font-family="sans-serif" font-size="14" lengthAdjust="spacing" textLength="138" x="301.5" y="349.9951">width, height: float</text><rect fill="none" height="6" style="stroke:#C82930;stroke-width:1.0;" width="6" x="289.5" y="359.9453"/><text fill="#000000" font-family="sans-serif" font-size="14" lengthAdjust="spacing" textLength="227" x="301.5" y="366.292">helicopters: Array&lt;Helicopter&gt;</text><rect fill="none" height="6" style="stroke:#C82930;stroke-width:1.0;" width="6" x="289.5" y="376.2422"/><text fill="#000000" font-family="sans-serif" font-size="14" lengthAdjust="spacing" textLength="183" x="301.5" y="382.5889">animator: WorldAnimator</text><rect fill="none" height="6" style="stroke:#C82930;stroke-width:1.0;" width="6" x="289.5" y="392.5391"/><text fill="#000000" font-family="sans-serif" font-size="14" lengthAdjust="spacing" text-decoration="underline" textLength="112" x="301.5" y="398.8857">instance: World</text><line style="stroke:#181818;stroke-width:0.5;" x1="282.5" x2="617.5" y1="406.1875" y2="406.1875"/><ellipse cx="292.5" cy="419.8359" fill="#84BE84" rx="3" ry="3" style="stroke:#038048;stroke-width:1.0;"/><text fill="#000000" font-family="sans-serif" font-size="14" lengthAdjust="spacing" text-decoration="underline" textLength="147" x="301.5" y="423.1826">getInstance(): World</text><ellipse cx="292.5" cy="436.1328" fill="#84BE84" rx="3" ry="3" style="stroke:#038048;stroke-width:1.0;"/><text fill="#000000" font-family="sans-serif" font-size="14" lengthAdjust="spacing" textLength="311" x="301.5" y="439.4795">addHelicopter(helicopter: Helicopter): void</text><ellipse cx="292.5" cy="452.4297" fill="#84BE84" rx="3" ry="3" style="stroke:#038048;stroke-width:1.0;"/><text fill="#000000" font-family="sans-serif" font-size="14" lengthAdjust="spacing" textLength="216" x="301.5" y="455.7764">update(deltaTime: float): void</text><ellipse cx="292.5" cy="468.7266" fill="#84BE84" rx="3" ry="3" style="stroke:#038048;stroke-width:1.0;"/><text fill="#000000" font-family="sans-serif" font-size="14" lengthAdjust="spacing" textLength="97" x="301.5" y="472.0732">render(): void</text></g><!--class WorldAnimator--><g id="elem_WorldAnimator"><rect codeLine="42" fill="#F1F1F1" height="145.7813" id="WorldAnimator" rx="2.5" ry="2.5" style="stroke:#181818;stroke-width:0.5;" width="350" x="661" y="580.5"/><ellipse cx="777.25" cy="596.5" fill="#ADD1B2" rx="11" ry="11" style="stroke:#181818;stroke-width:1.0;"/><path d="M779.5938,592.1719 C778.6563,591.7344 778.0625,591.5938 777.1875,591.5938 C774.5625,591.5938 772.5625,593.6719 772.5625,596.3906 L772.5625,597.5156 C772.5625,600.0938 774.6719,601.9844 777.5625,601.9844 C778.7813,601.9844 779.9375,601.6875 780.6875,601.1406 C781.2656,600.7344 781.5938,600.2813 781.5938,599.8906 C781.5938,599.4375 781.2031,599.0469 780.7344,599.0469 C780.5156,599.0469 780.3125,599.125 780.125,599.3125 C779.6719,599.7969 779.6719,599.7969 779.4844,599.8906 C779.0625,600.1563 778.375,600.2813 777.6094,600.2813 C775.5625,600.2813 774.2656,599.1875 774.2656,597.4844 L774.2656,596.3906 C774.2656,594.6094 775.5156,593.2969 777.25,593.2969 C777.8281,593.2969 778.4375,593.4531 778.9063,593.7031 C779.3906,593.9844 779.5625,594.2031 779.6563,594.6094 C779.7188,595.0156 779.75,595.1406 779.8906,595.2656 C780.0313,595.4063 780.2656,595.5156 780.4844,595.5156 C780.75,595.5156 781.0156,595.375 781.1875,595.1563 C781.2969,595 781.3281,594.8125 781.3281,594.3906 L781.3281,592.9688 C781.3281,592.5313 781.3125,592.4063 781.2188,592.25 C781.0625,591.9844 780.7813,591.8438 780.4844,591.8438 C780.1875,591.8438 779.9844,591.9375 779.7656,592.25 L779.5938,592.1719 Z " fill="#000000"/><text fill="#000000" font-family="sans-serif" font-size="14" lengthAdjust="spacing" textLength="109" x="797.75" y="601.3467">WorldAnimator</text><line style="stroke:#181818;stroke-width:0.5;" x1="662" x2="1010" y1="612.5" y2="612.5"/><rect fill="none" height="6" style="stroke:#C82930;stroke-width:1.0;" width="6" x="669" y="623.1484"/><text fill="#000000" font-family="sans-serif" font-size="14" lengthAdjust="spacing" textLength="138" x="681" y="629.4951">batch: SpriteBatch</text><rect fill="none" height="6" style="stroke:#C82930;stroke-width:1.0;" width="6" x="669" y="639.4453"/><text fill="#000000" font-family="sans-serif" font-size="14" lengthAdjust="spacing" textLength="150" x="681" y="645.792">background: Texture</text><rect fill="none" height="6" style="stroke:#C82930;stroke-width:1.0;" width="6" x="669" y="655.7422"/><text fill="#000000" font-family="sans-serif" font-size="14" lengthAdjust="spacing" textLength="138" x="681" y="662.0889">width, height: float</text><rect fill="none" height="6" style="stroke:#C82930;stroke-width:1.0;" width="6" x="669" y="672.0391"/><text fill="#000000" font-family="sans-serif" font-size="14" lengthAdjust="spacing" textLength="126" x="681" y="678.3857">font: BitmapFont</text><line style="stroke:#181818;stroke-width:0.5;" x1="662" x2="1010" y1="685.6875" y2="685.6875"/><ellipse cx="672" cy="699.3359" fill="#84BE84" rx="3" ry="3" style="stroke:#038048;stroke-width:1.0;"/><text fill="#000000" font-family="sans-serif" font-size="14" lengthAdjust="spacing" textLength="119" x="681" y="702.6826">WorldAnimator()</text><ellipse cx="672" cy="715.6328" fill="#84BE84" rx="3" ry="3" style="stroke:#038048;stroke-width:1.0;"/><text fill="#000000" font-family="sans-serif" font-size="14" lengthAdjust="spacing" textLength="324" x="681" y="718.9795">render(helicopters: Array&lt;Helicopter&gt;): void</text></g><!--link GameApp to World--><g id="link_GameApp_World"><path codeLine="51" d="M450,224.189 C450,246.827 450,268.623 450,294.894 " fill="none" id="GameApp-to-World" style="stroke:#181818;stroke-width:1.0;"/><polygon fill="#181818" points="450,300.894,454,291.894,450,295.894,446,291.894,450,300.894" style="stroke:#181818;stroke-width:1.0;"/><text fill="#000000" font-family="sans-serif" font-size="13" lengthAdjust="spacing" textLength="54" x="451" y="267.0669">contains</text><text fill="#000000" font-family="sans-serif" font-size="13" lengthAdjust="spacing" textLength="8" x="441.6688" y="289.9507">1</text></g><!--link Helicopter to HelicopterAnimator--><g id="link_Helicopter_HelicopterAnimator"><path codeLine="52" d="M357.904,751.061 C360.501,776.386 362.6619,797.4503 365.1609,821.8183 " fill="none" id="Helicopter-to-HelicopterAnimator" style="stroke:#181818;stroke-width:1.0;"/><polygon fill="#181818" points="365.773,827.787,368.834,818.4259,365.2629,822.8131,360.8757,819.242,365.773,827.787" style="stroke:#181818;stroke-width:1.0;"/><text fill="#000000" font-family="sans-serif" font-size="13" lengthAdjust="spacing" textLength="135" x="363" y="794.0669">visual representation</text><text fill="#000000" font-family="sans-serif" font-size="13" lengthAdjust="spacing" textLength="8" x="356.684" y="816.9553">1</text></g><!--link Helicopter to World--><g id="link_Helicopter_World"><path codeLine="53" d="M398.308,555.923 C402.847,545.926 407.169,535.83 411,526 C416.803,511.112 420.4363,500.7423 425.2403,485.0143 " fill="none" id="Helicopter-to-World" style="stroke:#181818;stroke-width:1.0;"/><polygon fill="#181818" points="426.993,479.276,420.5384,486.715,425.5324,484.0579,428.1895,489.0519,426.993,479.276" style="stroke:#181818;stroke-width:1.0;"/><text fill="#000000" font-family="sans-serif" font-size="13" lengthAdjust="spacing" textLength="80" x="417" y="522.0669">exists within</text><text fill="#000000" font-family="sans-serif" font-size="13" lengthAdjust="spacing" textLength="8" x="416.7565" y="499.3471">1</text></g><!--link World to Helicopter--><g id="link_World_Helicopter"><path codeLine="54" d="M356.831,479.07 C350.519,488.588 345.064,498.611 341,509 C335.275,523.634 332.792,539.756 332.302,555.748 " fill="none" id="World-Helicopter" style="stroke:#181818;stroke-width:1.0;"/><text fill="#000000" font-family="sans-serif" font-size="13" lengthAdjust="spacing" textLength="60" x="342" y="522.0669">manages</text><text fill="#000000" font-family="sans-serif" font-size="13" lengthAdjust="spacing" textLength="8" x="340.4805" y="499.4255">1</text><text fill="#000000" font-family="sans-serif" font-size="13" lengthAdjust="spacing" textLength="23" x="307.2197" y="544.7742">0..*</text></g><!--link World to WorldAnimator--><g id="link_World_WorldAnimator"><path codeLine="56" d="M580.144,479.167 C628.732,512.084 678.3196,545.6778 724.5326,576.9848 " fill="none" id="World-to-WorldAnimator" style="stroke:#181818;stroke-width:1.0;"/><polygon fill="#181818" points="729.5,580.35,724.2923,571.9906,725.3605,577.5457,719.8054,578.6138,729.5,580.35" style="stroke:#181818;stroke-width:1.0;"/><text fill="#000000" font-family="sans-serif" font-size="13" lengthAdjust="spacing" textLength="103" x="644" y="522.0669">renders through</text><text fill="#000000" font-family="sans-serif" font-size="13" lengthAdjust="spacing" textLength="8" x="710.6227" y="569.4952">1</text></g><!--SRC=[hLN9Rjim4BtxAmYVxCOosgjG670AT05wQz2S9-H494AH0ZbkR0J-zrAo5igKdI28BgA6ipo-UKDLm9-WGCPjkIuFXTYl2oYHlSncB3nSW_ViHx1igoeOMVjapzPfaRFx-jLRRxX385miS_RFgiZkq0Xq8_inBl0JjUAs8dHnZVsA7LPi_nUrvOh2yZ0idIKWPKtE7hK5Ye0fGNB59Af2Khex1Ji3eqeWw_88oBQr3OSOzXPnce2mBHC0zgiUzR1tPbaEcNULg6aJg0dkL8cTnmKQ7u2upDcVoYd2s_eZyUHMQoNGtokI2qiIHsSBxW_MQWGpH4WmGkCt1tuwuBN6TNp53VGDGf-phNDm-7g7Uzevt0mEGlbAmo4wSnGiGUlVrbOfs8plNE22fk9kKaYBjCoAfUa_iY5l5SMPZ2_ot2XjD7zNPIvx3dho1resKy9l2YIQV_4rF7vacJ9XQJWc8z-x54Y_MgTwqC_SG8XeVWPybrJsdZPSPszAe6dZuZt-L3YxCs7GM-M-bVv7QuBnLb49rVUm7f2Ea2oMoH6kDsxYWDtLd6KRDlyoRuMIX-lS48IcDKxHzThvJGnkIAxy3ZHpM3dqORuQQLxAq5N2lVBasNEuQTJ9-RHJ-sGPctzUhp_5zK982IRySaxOeeXHvWZMYHlFI8Ps579s_0y0]--></g></svg>